<svg width="510" height="416" viewBox="0 0 510 416" fill="none" xmlns="http://www.w3.org/2000/svg">
<path d="M381.172 294.036L341.45 270.718L310.249 317.15C328.477 332.362 359.1 343.425 374.924 340.047C407.398 333.114 473.021 240.911 482.127 233.891C513.125 209.994 523.201 200.925 484.413 219.494C447.432 237.198 467.019 219.494 457.959 219.494C447.074 220.254 450.681 229.915 454.721 236.837L381.172 294.036Z" fill="url(#paint0_linear_0_675)"/>
<path d="M155.79 258.711C166.997 250.929 211.279 236.911 230.727 230.874L251.302 233.119C264.266 236.333 292.073 241.812 304.863 246.998C317.654 252.183 340.866 268.72 362.521 282.51L357.408 300.218C352.816 316.121 340.673 328.733 324.955 333.924C320.91 359.646 317.422 401.463 317.998 414.427L167.512 414.31L160.623 350.662L129.634 353.982L103.457 333.924C136.234 277.23 141.782 268.439 155.79 258.711Z" fill="url(#paint1_linear_0_675)"/>
<path d="M112.739 404.965C65.0583 398.92 96.0694 350.595 104.523 334.636C114.748 343.243 127.374 348.494 140.687 349.677L157.118 351.136L150.39 366.658L223.029 383.664L233.22 411.935C225.961 410.699 172.032 412.484 112.739 404.965Z" fill="url(#paint2_linear_0_675)"/>
<path d="M235.798 104C238.145 99.7566 244.875 93.8154 253.022 104H235.798Z" fill="#30235B"/>
<ellipse cx="239.71" cy="249.383" rx="25.9725" ry="18.5082" fill="#CF0606"/>
<path d="M218.429 248.388L222.059 212.239H257.404L261.464 248.388C260.045 252.645 253.345 261.281 240.939 261.281C225.126 261.281 219.442 252.645 218.429 248.388Z" fill="url(#paint3_linear_0_675)"/>
<mask id="mask0_0_675" style="mask-type:alpha" maskUnits="userSpaceOnUse" x="218" y="212" width="44" height="50">
<path d="M218.429 248.388L222.059 212.239H257.404L261.472 248.461C260.053 252.718 253.33 261.282 240.923 261.282C225.111 261.282 219.442 252.645 218.429 248.388Z" fill="url(#paint4_linear_0_675)"/>
</mask>
<g mask="url(#mask0_0_675)">
<path opacity="0.1" d="M270.142 213.623C238.183 253.165 220.324 221.371 211.099 216.602L217.438 189.87L255.28 185.351L270.142 213.623Z" fill="black"/>
</g>
<path d="M239.097 226.751C200.98 226.751 194.425 172.036 206.202 147.01C232.7 114.623 265.824 133.515 279.073 147.01C282.263 167.865 285.78 226.751 239.097 226.751Z" fill="url(#paint5_linear_0_675)"/>
<path d="M279.724 184.893L272.256 179.392L273.411 175.296L281.941 180.921L279.724 184.893Z" fill="#111111"/>
<path d="M201.919 183.298L209.387 177.796L208.232 173.701L199.702 179.325L201.919 183.298Z" fill="#111111"/>
<path d="M208.753 150.298C235.777 167.905 265.735 157.634 277.336 150.298C274.893 158.002 278.354 172.811 280.389 179.252C297.973 156.354 292.224 143.989 287.152 140.668C286.307 129.256 275.932 100.722 241.103 102.074C206.274 103.427 199.515 128.129 200.502 137.287C187.314 155.209 195.16 172.731 201.521 179.252C208.753 165.212 208.588 155.363 208.753 150.298Z" fill="#30235B"/>
<g filter="url(#filter0_d_0_675)">
<path d="M243.871 119.695C203.528 118.344 194.542 144.876 193.336 160.282C193.239 161.516 192.23 162.487 190.993 162.487C189.672 162.487 188.62 161.386 188.738 160.071C190.498 140.317 201.03 105.799 243.871 108.179C287.127 110.582 295.589 145.017 294.262 164.213C294.191 165.24 293.323 166.016 292.293 166.016C291.17 166.016 290.269 165.105 290.224 163.983C289.588 148.056 279 120.713 243.871 119.695Z" fill="white"/>
</g>
<g filter="url(#filter1_d_0_675)">
<rect x="295.069" y="172.316" width="5.4757" height="21.0131" rx="2.73785" transform="rotate(10.0542 295.069 172.316)" fill="#24C28A"/>
</g>
<g filter="url(#filter2_d_0_675)">
<rect x="283.305" y="158.693" width="16.8668" height="43.7733" rx="8.43338" transform="rotate(10.0542 283.305 158.693)" fill="white"/>
</g>
<g filter="url(#filter3_d_0_675)">
<rect width="5.4757" height="21.0131" rx="2.73785" transform="matrix(-0.984643 0.17458 0.17458 0.984643 186.159 172.316)" fill="#24C28A"/>
</g>
<g filter="url(#filter4_d_0_675)">
<rect width="16.8668" height="43.7733" rx="8.43338" transform="matrix(-0.984643 0.17458 0.17458 0.984643 197.77 158.693)" fill="white"/>
</g>
<mask id="mask1_0_675" style="mask-type:alpha" maskUnits="userSpaceOnUse" x="182" y="160" width="23" height="44">
<rect width="16.8668" height="43.7733" rx="8.43338" transform="matrix(-0.984643 0.17458 0.17458 0.984643 197.77 158.693)" fill="white"/>
</mask>
<g mask="url(#mask1_0_675)">
<rect x="189.828" y="158.693" width="21.9399" height="47.5168" transform="rotate(-10.0977 189.828 158.693)" fill="#E8E8E8"/>
</g>
<mask id="mask2_0_675" style="mask-type:alpha" maskUnits="userSpaceOnUse" x="277" y="160" width="22" height="44">
<rect x="283.305" y="158.693" width="16.8668" height="43.7733" rx="8.43338" transform="rotate(10.0542 283.305 158.693)" fill="white"/>
</mask>
<g mask="url(#mask2_0_675)">
<rect width="21.9399" height="47.5168" transform="matrix(-0.98451 -0.175326 -0.175326 0.98451 292.271 158.693)" fill="#E8E8E8"/>
</g>
<path opacity="0.5" d="M222.672 191.284C217.28 191.284 214.564 187.034 213.874 185.137C213.08 183.55 212.454 179.415 214.333 176.13C216.722 171.954 227.951 170.789 231.885 176.689C235.818 182.589 231.885 191.284 222.672 191.284Z" fill="#E6FCFF"/>
<path opacity="0.5" d="M258.403 191.284C263.796 191.284 266.511 187.034 267.201 185.137C267.995 183.55 268.622 179.415 266.743 176.13C264.354 171.954 253.124 170.789 249.191 176.689C245.257 182.589 249.191 191.284 258.403 191.284Z" fill="#E6FCFF"/>
<path d="M211.778 173.448C216.176 171.794 224.898 166.805 234.671 175.387C236.249 174.85 240.714 174.079 245.953 175.287C250.701 169.308 264.182 168.712 270.459 175.07L272.953 175.048C273.505 175.043 273.957 175.487 273.962 176.039L273.989 179.07C273.994 179.622 273.55 180.074 272.998 180.079L270.504 180.101C270.401 184.406 267.788 193.014 258.153 193.002C246.109 192.987 244.777 182.035 244.518 180.331C244.26 178.628 237.726 177.102 236.235 180.405C235.863 184.185 233.997 190.21 227.029 192.339C219.214 194.728 209.443 191.182 210.986 177.931H208.855C208.306 177.931 207.86 177.489 207.855 176.94L207.833 174.462C207.828 173.907 208.276 173.455 208.831 173.453L211.778 173.448ZM231.885 176.69C227.951 170.79 216.722 171.954 214.333 176.13C212.454 179.415 213.08 183.55 213.874 185.137C214.564 187.035 217.28 191.285 222.673 191.285C231.885 191.284 235.818 182.59 231.885 176.69ZM266.744 176.13C264.355 171.954 253.126 170.789 249.192 176.689C245.259 182.589 249.192 191.284 258.404 191.285C263.796 191.285 266.513 187.035 267.203 185.137C267.996 183.55 268.623 179.415 266.744 176.13Z" fill="#111111"/>
<path d="M164.324 409.064C164.324 408.509 164.774 408.06 165.329 408.06H319.721C320.692 408.06 321.479 408.847 321.479 409.818C321.479 412.73 319.118 415.092 316.205 415.092H170.352C167.023 415.092 164.324 412.393 164.324 409.064Z" fill="#B4B4B4"/>
<rect x="164.324" y="305.524" width="157.155" height="105.147" rx="2.94666" fill="url(#paint6_linear_0_675)"/>
<circle cx="242.901" cy="358.098" r="11.1765" fill="white"/>
<path d="M132.683 162.404C132.117 163.99 131.438 166.843 131.239 170.252C127.62 170.442 124.808 171.373 123.368 172.141C125.985 173.076 128.676 173.502 131.211 173.613C131.323 176.148 131.749 178.84 132.683 181.457C133.451 180.017 134.383 177.205 134.573 173.586C137.981 173.386 140.835 172.708 142.42 172.141C139.638 171.029 136.967 170.48 134.532 170.294C134.346 167.858 133.796 165.186 132.683 162.404Z" fill="url(#paint7_linear_0_675)"/>
<path d="M105.312 142.602C104.935 143.657 104.484 145.557 104.351 147.825C101.942 147.952 100.07 148.572 99.1111 149.083C100.853 149.705 102.645 149.989 104.333 150.063C104.407 151.75 104.69 153.542 105.312 155.284C105.824 154.326 106.444 152.453 106.57 150.044C108.839 149.911 110.738 149.46 111.794 149.083C109.942 148.342 108.164 147.976 106.543 147.853C106.419 146.231 106.053 144.453 105.312 142.602Z" fill="url(#paint8_linear_0_675)"/>
<path d="M62.4724 124C61.906 125.586 61.2274 128.439 61.028 131.847C57.4089 132.037 54.5972 132.969 53.1569 133.737C55.7737 134.672 58.4655 135.098 61.0007 135.209C61.1119 137.744 61.5378 140.436 62.4724 143.052C63.2405 141.612 64.172 138.801 64.362 135.181C67.7704 134.982 70.6237 134.303 72.2097 133.737C69.4276 132.624 66.7567 132.074 64.321 131.888C64.1351 129.453 63.5852 126.782 62.4724 124Z" fill="url(#paint9_linear_0_675)"/>
<path d="M66.8629 198.642C66.0295 200.976 65.0301 205.174 64.7369 210.189C59.4127 210.469 55.2758 211.837 53.1569 212.967C57.0069 214.342 60.967 214.97 64.6969 215.133C64.8605 218.863 65.4879 222.823 66.8629 226.673C67.993 224.555 69.3616 220.418 69.6412 215.093C74.6564 214.8 78.8547 213.801 81.1881 212.967C77.0947 211.33 73.1645 210.523 69.5807 210.25C69.3072 206.666 68.5003 202.736 66.8629 198.642Z" fill="url(#paint10_linear_0_675)"/>
<circle cx="95.2053" cy="180.534" r="1.8414" fill="#2F235A"/>
<circle cx="137.463" cy="127.737" r="1.8414" fill="#FE9076"/>
<circle cx="44.8435" cy="173.224" r="1.8414" fill="#FFA400"/>
<circle cx="127.37" cy="208.934" r="1.8414" fill="#23BB86"/>
<path d="M132.951 120.052C128.788 114.334 117.061 102.121 103.457 99.0115" stroke="#FE9076" stroke-width="1.60277" stroke-linecap="round"/>
<path d="M37.0741 168.288C30.921 164.801 15.1963 158.522 1.52302 161.309" stroke="#FFA400" stroke-width="1.60277" stroke-linecap="round"/>
<path d="M121.05 214.283C117.897 217.065 110.311 224.967 105.192 234.314" stroke="#23BB86" stroke-width="1.60277" stroke-linecap="round"/>
<path d="M347.143 162.404C347.709 163.99 348.388 166.843 348.587 170.252C352.206 170.442 355.018 171.373 356.458 172.141C353.842 173.076 351.15 173.502 348.615 173.613C348.503 176.148 348.077 178.84 347.143 181.457C346.375 180.017 345.443 177.205 345.253 173.586C341.845 173.386 338.992 172.708 337.406 172.141C340.188 171.029 342.859 170.48 345.294 170.294C345.48 167.858 346.03 165.186 347.143 162.404Z" fill="url(#paint11_linear_0_675)"/>
<path d="M374.514 142.602C374.891 143.657 375.342 145.557 375.475 147.825C377.884 147.952 379.756 148.572 380.715 149.083C378.973 149.705 377.181 149.989 375.493 150.063C375.419 151.75 375.136 153.542 374.514 155.284C374.002 154.326 373.382 152.453 373.256 150.044C370.987 149.911 369.088 149.46 368.032 149.083C369.884 148.342 371.662 147.976 373.283 147.853C373.407 146.231 373.773 144.453 374.514 142.602Z" fill="url(#paint12_linear_0_675)"/>
<path d="M417.354 124C417.92 125.586 418.599 128.439 418.798 131.847C422.417 132.037 425.229 132.969 426.669 133.737C424.052 134.672 421.361 135.098 418.825 135.209C418.714 137.744 418.288 140.436 417.354 143.052C416.586 141.612 415.654 138.801 415.464 135.181C412.056 134.982 409.202 134.303 407.616 133.737C410.398 132.624 413.069 132.074 415.505 131.888C415.691 129.453 416.241 126.782 417.354 124Z" fill="url(#paint13_linear_0_675)"/>
<path d="M412.963 198.642C413.797 200.976 414.796 205.174 415.089 210.189C420.413 210.469 424.55 211.837 426.669 212.967C422.819 214.342 418.859 214.97 415.129 215.133C414.966 218.863 414.338 222.823 412.963 226.673C411.833 224.555 410.464 220.418 410.185 215.093C405.17 214.8 400.971 213.801 398.638 212.967C402.731 211.33 406.662 210.523 410.245 210.25C410.519 206.666 411.326 202.736 412.963 198.642Z" fill="url(#paint14_linear_0_675)"/>
<circle cx="1.8414" cy="1.8414" r="1.8414" transform="matrix(-1 0 0 1 386.462 178.693)" fill="#2F235A"/>
<circle cx="1.8414" cy="1.8414" r="1.8414" transform="matrix(-1 0 0 1 344.204 125.895)" fill="#FE9076"/>
<circle cx="1.8414" cy="1.8414" r="1.8414" transform="matrix(-1 0 0 1 436.824 171.382)" fill="#FFA400"/>
<circle cx="1.8414" cy="1.8414" r="1.8414" transform="matrix(-1 0 0 1 354.298 207.093)" fill="#23BB86"/>
<path d="M346.875 120.052C351.038 114.334 362.765 102.121 376.369 99.0115" stroke="#FE9076" stroke-width="1.60277" stroke-linecap="round"/>
<path d="M442.752 168.288C448.905 164.801 464.63 158.522 478.303 161.309" stroke="#FFA400" stroke-width="1.60277" stroke-linecap="round"/>
<path d="M358.776 214.283C361.929 217.065 369.515 224.967 374.634 234.314" stroke="#23BB86" stroke-width="1.60277" stroke-linecap="round"/>
<path d="M269.949 56.5506C267.861 53.3252 263.635 55.0823 263.635 58.5958C263.635 61.2341 269.429 65.3612 269.949 65.8979C270.473 65.3612 275.979 61.2341 275.979 58.5958C275.979 55.1089 272.041 53.3252 269.949 56.5506Z" fill="#FFBCBC"/>
<circle cx="269.807" cy="60.3757" r="13.7999" stroke="#F7F7F7" stroke-width="0.649684"/>
<path d="M220.426 37.3174C218.578 34.4628 214.838 36.0179 214.838 39.1275C214.838 41.4626 219.966 45.1153 220.426 45.5902C220.89 45.1153 225.763 41.4626 225.763 39.1275C225.763 36.0415 222.278 34.4628 220.426 37.3174Z" fill="#FFBCBC"/>
<circle cx="220.3" cy="40.7028" r="12.2135" stroke="#F7F7F7" stroke-width="0.574998"/>
<path d="M253.109 16.3424C251.845 14.39 249.286 15.4536 249.286 17.5803C249.286 19.1774 252.794 21.6755 253.109 22.0004C253.426 21.6755 256.758 19.1774 256.758 17.5803C256.758 15.4697 254.375 14.39 253.109 16.3424Z" fill="#FFBCBC"/>
<circle cx="253.022" cy="18.6577" r="8.35318" stroke="#F7F7F7" stroke-width="0.393259"/>
<path d="M195.379 5.47825C194.345 3.88077 192.252 4.75102 192.252 6.49121C192.252 7.79795 195.121 9.84206 195.379 10.1078C195.638 9.84206 198.365 7.79795 198.365 6.49121C198.365 4.76422 196.415 3.88077 195.379 5.47825Z" fill="#FFBCBC"/>
<circle cx="195.308" cy="7.37273" r="6.83488" stroke="#F7F7F7" stroke-width="0.321779"/>
<path d="M190.292 80.3643C188.034 76.8765 183.464 78.7765 183.464 82.5759C183.464 85.4289 189.729 89.8918 190.292 90.4721C190.859 89.8918 196.813 85.4289 196.813 82.5759C196.813 78.8053 192.554 76.8765 190.292 80.3643Z" fill="#FFBCBC"/>
<circle cx="190.138" cy="84.5004" r="14.9226" stroke="#F7F7F7" stroke-width="0.702541"/>
<defs>
<filter id="filter0_d_0_675" x="154.729" y="78.0618" width="173.661" height="125.955" filterUnits="userSpaceOnUse" color-interpolation-filters="sRGB">
<feFlood flood-opacity="0" result="BackgroundImageFix"/>
<feColorMatrix in="SourceAlpha" type="matrix" values="0 0 0 0 0 0 0 0 0 0 0 0 0 0 0 0 0 0 127 0" result="hardAlpha"/>
<feOffset dy="4"/>
<feGaussianBlur stdDeviation="17"/>
<feColorMatrix type="matrix" values="0 0 0 0 0.0386285 0 0 0 0 0.0648437 0 0 0 0 0.104167 0 0 0 0.13 0"/>
<feBlend mode="normal" in2="BackgroundImageFix" result="effect1_dropShadow_0_675"/>
<feBlend mode="normal" in="SourceGraphic" in2="effect1_dropShadow_0_675" result="shape"/>
</filter>
<filter id="filter1_d_0_675" x="257.836" y="142.751" width="76.1891" height="88.7754" filterUnits="userSpaceOnUse" color-interpolation-filters="sRGB">
<feFlood flood-opacity="0" result="BackgroundImageFix"/>
<feColorMatrix in="SourceAlpha" type="matrix" values="0 0 0 0 0 0 0 0 0 0 0 0 0 0 0 0 0 0 127 0" result="hardAlpha"/>
<feOffset dy="4"/>
<feGaussianBlur stdDeviation="17"/>
<feColorMatrix type="matrix" values="0 0 0 0 0.0386285 0 0 0 0 0.0648437 0 0 0 0 0.104167 0 0 0 0.13 0"/>
<feBlend mode="normal" in2="BackgroundImageFix" result="effect1_dropShadow_0_675"/>
<feBlend mode="normal" in="SourceGraphic" in2="effect1_dropShadow_0_675" result="shape"/>
</filter>
<filter id="filter2_d_0_675" x="243.005" y="130.034" width="89.5669" height="111.363" filterUnits="userSpaceOnUse" color-interpolation-filters="sRGB">
<feFlood flood-opacity="0" result="BackgroundImageFix"/>
<feColorMatrix in="SourceAlpha" type="matrix" values="0 0 0 0 0 0 0 0 0 0 0 0 0 0 0 0 0 0 127 0" result="hardAlpha"/>
<feOffset dy="4"/>
<feGaussianBlur stdDeviation="17"/>
<feColorMatrix type="matrix" values="0 0 0 0 0.0386285 0 0 0 0 0.0648437 0 0 0 0 0.104167 0 0 0 0.13 0"/>
<feBlend mode="normal" in2="BackgroundImageFix" result="effect1_dropShadow_0_675"/>
<feBlend mode="normal" in="SourceGraphic" in2="effect1_dropShadow_0_675" result="shape"/>
</filter>
<filter id="filter3_d_0_675" x="147.203" y="142.751" width="76.1891" height="88.7754" filterUnits="userSpaceOnUse" color-interpolation-filters="sRGB">
<feFlood flood-opacity="0" result="BackgroundImageFix"/>
<feColorMatrix in="SourceAlpha" type="matrix" values="0 0 0 0 0 0 0 0 0 0 0 0 0 0 0 0 0 0 127 0" result="hardAlpha"/>
<feOffset dy="4"/>
<feGaussianBlur stdDeviation="17"/>
<feColorMatrix type="matrix" values="0 0 0 0 0.0386285 0 0 0 0 0.0648437 0 0 0 0 0.104167 0 0 0 0.13 0"/>
<feBlend mode="normal" in2="BackgroundImageFix" result="effect1_dropShadow_0_675"/>
<feBlend mode="normal" in="SourceGraphic" in2="effect1_dropShadow_0_675" result="shape"/>
</filter>
<filter id="filter4_d_0_675" x="148.504" y="130.034" width="89.5669" height="111.363" filterUnits="userSpaceOnUse" color-interpolation-filters="sRGB">
<feFlood flood-opacity="0" result="BackgroundImageFix"/>
<feColorMatrix in="SourceAlpha" type="matrix" values="0 0 0 0 0 0 0 0 0 0 0 0 0 0 0 0 0 0 127 0" result="hardAlpha"/>
<feOffset dy="4"/>
<feGaussianBlur stdDeviation="17"/>
<feColorMatrix type="matrix" values="0 0 0 0 0.0386285 0 0 0 0 0.0648437 0 0 0 0 0.104167 0 0 0 0.13 0"/>
<feBlend mode="normal" in2="BackgroundImageFix" result="effect1_dropShadow_0_675"/>
<feBlend mode="normal" in="SourceGraphic" in2="effect1_dropShadow_0_675" result="shape"/>
</filter>
<linearGradient id="paint0_linear_0_675" x1="391.304" y1="158.698" x2="393.951" y2="334.566" gradientUnits="userSpaceOnUse">
<stop stop-color="#FFEFE0"/>
<stop offset="1" stop-color="#FFBE99"/>
</linearGradient>
<linearGradient id="paint1_linear_0_675" x1="242.798" y1="200.585" x2="230.398" y2="448.923" gradientUnits="userSpaceOnUse">
<stop stop-color="#FF9F81"/>
<stop offset="1" stop-color="#F53838"/>
</linearGradient>
<linearGradient id="paint2_linear_0_675" x1="227.733" y1="287.86" x2="109.061" y2="344.735" gradientUnits="userSpaceOnUse">
<stop offset="0.0677966" stop-color="#FFEFE0"/>
<stop offset="1" stop-color="#FFBE99"/>
</linearGradient>
<linearGradient id="paint3_linear_0_675" x1="238.727" y1="173.352" x2="240.807" y2="239.738" gradientUnits="userSpaceOnUse">
<stop stop-color="#FFEFE0"/>
<stop offset="1" stop-color="#FFBE99"/>
</linearGradient>
<linearGradient id="paint4_linear_0_675" x1="238.727" y1="173.352" x2="235.813" y2="248.983" gradientUnits="userSpaceOnUse">
<stop stop-color="#FFEFE0"/>
<stop offset="1" stop-color="#FFBE99"/>
</linearGradient>
<linearGradient id="paint5_linear_0_675" x1="242.184" y1="137.96" x2="242.184" y2="217.679" gradientUnits="userSpaceOnUse">
<stop stop-color="#FFEFE0"/>
<stop offset="1" stop-color="#FFBE99"/>
</linearGradient>
<linearGradient id="paint6_linear_0_675" x1="275.352" y1="226.611" x2="217.247" y2="435.106" gradientUnits="userSpaceOnUse">
<stop offset="0.0171777" stop-color="white"/>
<stop offset="1" stop-color="#D7D7D7"/>
</linearGradient>
<linearGradient id="paint7_linear_0_675" x1="132.894" y1="164.432" x2="132.894" y2="182.321" gradientUnits="userSpaceOnUse">
<stop stop-color="#FFE89E"/>
<stop offset="1" stop-color="#FFBF1A"/>
</linearGradient>
<linearGradient id="paint8_linear_0_675" x1="105.452" y1="143.952" x2="105.452" y2="155.86" gradientUnits="userSpaceOnUse">
<stop stop-color="#FFE89E"/>
<stop offset="1" stop-color="#FFBF1A"/>
</linearGradient>
<linearGradient id="paint9_linear_0_675" x1="62.6833" y1="126.028" x2="62.6833" y2="143.917" gradientUnits="userSpaceOnUse">
<stop stop-color="#FFE89E"/>
<stop offset="1" stop-color="#FFBF1A"/>
</linearGradient>
<linearGradient id="paint10_linear_0_675" x1="67.1724" y1="201.626" x2="67.1724" y2="227.946" gradientUnits="userSpaceOnUse">
<stop stop-color="#FFE89E"/>
<stop offset="1" stop-color="#FFBF1A"/>
</linearGradient>
<linearGradient id="paint11_linear_0_675" x1="346.932" y1="164.432" x2="346.932" y2="182.321" gradientUnits="userSpaceOnUse">
<stop stop-color="#FFE89E"/>
<stop offset="1" stop-color="#FFBF1A"/>
</linearGradient>
<linearGradient id="paint12_linear_0_675" x1="374.374" y1="143.952" x2="374.374" y2="155.86" gradientUnits="userSpaceOnUse">
<stop stop-color="#FFE89E"/>
<stop offset="1" stop-color="#FFBF1A"/>
</linearGradient>
<linearGradient id="paint13_linear_0_675" x1="417.143" y1="126.028" x2="417.143" y2="143.917" gradientUnits="userSpaceOnUse">
<stop stop-color="#FFE89E"/>
<stop offset="1" stop-color="#FFBF1A"/>
</linearGradient>
<linearGradient id="paint14_linear_0_675" x1="412.654" y1="201.626" x2="412.654" y2="227.946" gradientUnits="userSpaceOnUse">
<stop stop-color="#FFE89E"/>
<stop offset="1" stop-color="#FFBF1A"/>
</linearGradient>
</defs>
</svg>
