<svg width="25" height="25" viewBox="0 0 25 25" fill="none" xmlns="http://www.w3.org/2000/svg">
<path d="M11.4487 17.2795C11.3174 17.2797 11.1874 17.2541 11.0661 17.204C10.9448 17.1538 10.8345 17.0803 10.7417 16.9875L6.49971 12.7445C6.40414 12.6523 6.32788 12.542 6.27539 12.42C6.22289 12.2981 6.19521 12.1669 6.19397 12.0341C6.19272 11.9013 6.21793 11.7696 6.26812 11.6467C6.31832 11.5237 6.39249 11.412 6.48632 11.3181C6.58014 11.2241 6.69174 11.1498 6.8146 11.0994C6.93746 11.0491 7.06912 11.0237 7.2019 11.0247C7.33468 11.0258 7.46592 11.0533 7.58796 11.1056C7.71 11.1579 7.8204 11.234 7.91271 11.3295L11.4477 14.8645L17.8127 8.50145C18.0002 8.31381 18.2546 8.20835 18.5199 8.20825C18.7851 8.20816 19.0396 8.31345 19.2272 8.50095C19.4149 8.68846 19.5203 8.94283 19.5204 9.2081C19.5205 9.47337 19.4152 9.72781 19.2277 9.91545L12.1557 16.9875C12.0629 17.0803 11.9527 17.1538 11.8313 17.204C11.71 17.2541 11.58 17.2797 11.4487 17.2795Z" fill="#2FAB73"/>
</svg>
